<svg version="1.2" baseProfile="tiny-ps" xmlns="http://www.w3.org/2000/svg" viewBox="0 0 240 39" width="240" height="39">
	<title>logo-svg</title>
	<style>
		tspan { white-space:pre }
		.shp0 { fill: #ffffff } 
	</style>
	<g id="Layer">
		<path id="Layer" fill-rule="evenodd" class="shp0" d="M38.8 2.22C40.15 2.58 41.63 2.94 42.86 3.93C44.14 5.02 44.87 7.07 44.81 9.17C44.66 14.45 44.45 19.67 43.09 23.9C42.64 25.54 40.92 27.58 38.42 27.65C31.35 28.17 25.1 28.57 17.94 28.39C15.19 31.2 13.82 33.06 11.62 37.29C11.12 38.24 10.11 38.61 9.25 38.54C8.82 38.51 8.4 38.39 8.03 38.1C7.61 37.77 7.27 37.19 7.32 36.5L7.63 27.8C7.28 27.77 6.92 27.73 6.57 27.69C6.22 27.65 5.86 27.61 5.51 27.57C5.16 27.52 4.81 27.48 4.45 27.43C4.1 27.38 3.75 27.33 3.4 27.28C2.3 27.11 1.38 26.6 0.84 25.8C0.32 25 0.16 23.7 0.12 22.59C-0.04 17.78 -0.14 13.43 0.65 9C0.81 8.17 0.98 7.38 1.47 6.59C2.01 5.76 3.01 5.08 4.05 4.87C12.18 2.62 20.24 0.88 27.97 0.88C31.26 0.91 35.03 1.36 38.8 2.22ZM38.26 4.19C35.27 3.41 31.5 3.05 27.9 2.92C20.58 2.92 12.79 4.56 4.84 6.76C4.21 6.93 3.6 7.03 3.19 7.66C2.95 8.18 2.72 8.81 2.65 9.42C1.92 13.58 2 17.75 2.16 22.52C2.19 23.32 2.18 23.83 2.52 24.65C2.72 24.95 2.99 25.15 3.72 25.26C4.14 25.32 4.56 25.38 4.98 25.44C5.4 25.5 5.82 25.55 6.24 25.6C6.66 25.65 7.09 25.7 7.51 25.75C7.93 25.8 8.35 25.84 8.78 25.88C9.28 25.93 9.7 26.42 9.68 26.93L9.37 36.36C9.38 36.43 9.41 36.5 9.51 36.51C9.66 36.5 9.77 36.44 9.83 36.33C12.15 31.87 13.7 29.73 16.75 26.66C16.8 26.61 16.85 26.56 16.91 26.52C16.97 26.49 17.03 26.45 17.1 26.43C17.16 26.4 17.23 26.38 17.3 26.37C17.37 26.36 17.44 26.35 17.51 26.36C24.76 26.56 31.01 26.15 38.22 25.62C39.86 25.47 40.73 24.47 41.22 23.06C42.38 19.29 42.63 14.32 42.77 9.2C42.78 7.76 42.83 6.87 41.57 5.53C40.81 4.91 39.62 4.56 38.26 4.19ZM10.78 12.28C11.41 11.54 12.21 11.01 13.38 11C14.24 11.03 15.08 11.49 15.6 12.24C16.63 13.72 16.49 15.78 15.14 16.95C14.39 17.46 13.7 17.9 12.61 17.81C11.77 17.7 11.08 17.19 10.64 16.57C9.79 15.38 9.68 13.59 10.78 12.28L10.78 12.28ZM22.63 11.21C22.67 11.21 22.71 11.21 22.75 11.21C22.79 11.21 22.83 11.21 22.87 11.21C22.91 11.21 22.95 11.22 22.99 11.22C23.03 11.23 23.07 11.23 23.11 11.24C24.11 11.4 24.79 12.09 25.24 12.94C25.7 13.79 25.85 14.96 25.24 16C23.92 18.24 20.6 18.26 19.64 16.06C19.14 14.91 19.5 13.75 20.12 12.81C20.66 12 21.54 11.24 22.63 11.21ZM32.26 11.41C32.52 11.42 32.79 11.45 33.04 11.52C33.3 11.58 33.55 11.67 33.78 11.79C34.02 11.91 34.24 12.06 34.44 12.23C34.64 12.4 34.82 12.59 34.98 12.8C35.59 13.62 35.66 14.63 35.39 15.62C35.13 16.61 34.34 17.63 33.07 17.89C31.96 18.12 30.91 17.86 30.19 17.27C29.47 16.68 29.07 15.83 28.98 14.96C28.81 13.23 29.93 11.88 31.24 11.53C31.57 11.44 31.92 11.41 32.26 11.41L32.26 11.41ZM13.29 13.04C13.29 13.04 13.29 13.04 13.29 13.04C13.29 13.04 13.29 13.04 13.29 13.04L13.29 13.04ZM13.29 13.04C12.99 13.07 12.55 13.27 12.31 13.58C11.87 14.14 11.97 14.91 12.31 15.39C12.49 15.64 12.69 15.78 12.88 15.81C13.08 15.83 13.36 15.8 13.8 15.41C14.25 15.02 14.38 14.04 13.93 13.4C13.73 13.12 13.54 13.04 13.29 13.04ZM22.78 13.26C22.58 13.23 22.16 13.42 21.82 13.93C21.49 14.44 21.43 15.09 21.5 15.25C21.69 15.67 22.92 15.94 23.49 14.96C23.69 14.64 23.65 14.28 23.45 13.9C23.24 13.51 22.82 13.27 22.78 13.26L22.78 13.26ZM33.34 14.01C33.07 13.61 32.38 13.35 31.77 13.5C31.24 13.64 30.91 13.85 31 14.77C31.04 15.14 31.21 15.49 31.46 15.69C31.72 15.9 32.05 16.03 32.66 15.9C33.13 15.81 33.32 15.53 33.44 15.09C33.55 14.65 33.4 14.09 33.34 14.01Z" />
		<path id="Layer" fill-rule="evenodd" class="shp0" d="M57.61 5C57.63 4.74 57.72 4.5 57.9 4.3C57.94 4.24 57.99 4.2 58.04 4.16C58.09 4.12 58.15 4.09 58.21 4.06C58.27 4.03 58.34 4.01 58.4 4C58.47 3.99 58.53 3.98 58.6 3.99L65.42 3.99C65.65 3.99 65.89 4.08 66.14 4.27C66.19 4.31 66.25 4.36 66.29 4.41C66.34 4.47 66.38 4.53 66.41 4.59C66.44 4.65 66.46 4.72 66.48 4.79C66.5 4.86 66.5 4.93 66.5 5L66.5 15.89L77.92 15.89L77.92 5C77.92 4.72 78.02 4.48 78.21 4.28C78.4 4.08 78.65 3.98 78.96 3.98L85.69 3.98C86 3.98 86.27 4.06 86.5 4.21C86.73 4.37 86.84 4.61 86.84 4.95L86.84 37.1C86.84 37.44 86.74 37.69 86.54 37.86C86.34 38.03 86.08 38.11 85.76 38.11L78.96 38.11C78.65 38.11 78.4 38.03 78.21 37.86C78.02 37.69 77.92 37.44 77.92 37.1L77.92 24.05L66.5 24.05L66.5 37.1C66.5 37.42 66.4 37.67 66.19 37.85C65.99 38.02 65.71 38.11 65.35 38.11L58.6 38.11C57.95 38.11 57.63 37.81 57.61 37.22L57.61 5ZM119.85 38.04C119.8 38.05 119.75 38.06 119.7 38.07C119.64 38.08 119.59 38.09 119.54 38.09C119.49 38.1 119.43 38.1 119.38 38.11C119.33 38.11 119.27 38.11 119.22 38.11L115.75 38.11C115.48 38.11 115.24 38.06 115.04 37.96C114.84 37.86 114.67 37.73 114.53 37.56C114.5 37.52 114.46 37.47 114.43 37.43C114.4 37.38 114.37 37.33 114.34 37.28C114.31 37.24 114.28 37.19 114.26 37.14C114.23 37.09 114.21 37.04 114.19 36.98C114.17 36.93 114.14 36.88 114.12 36.82C114.1 36.77 114.08 36.71 114.06 36.66C114.04 36.6 114.02 36.54 114.01 36.49C113.99 36.43 113.97 36.38 113.96 36.32L113.25 33.38C113.02 33.85 112.68 34.39 112.25 35C112.13 35.16 112.01 35.31 111.88 35.46C111.75 35.62 111.61 35.76 111.47 35.91C111.33 36.05 111.19 36.18 111.04 36.32C110.89 36.45 110.74 36.58 110.58 36.7C109.91 37.23 109.1 37.67 108.17 38.03C107.23 38.39 106.16 38.57 104.95 38.57C103.2 38.57 101.62 38.23 100.19 37.56C99.85 37.4 99.51 37.22 99.18 37.02C98.85 36.82 98.53 36.61 98.23 36.37C97.92 36.14 97.63 35.89 97.35 35.63C97.07 35.37 96.8 35.09 96.55 34.8C95.55 33.64 94.77 32.28 94.22 30.72C93.67 29.17 93.39 27.51 93.39 25.75L93.39 10.7C93.39 10.11 93.52 9.67 93.77 9.37C94.02 9.08 94.42 8.93 94.98 8.93L100.28 8.93C100.94 8.93 101.4 9.04 101.64 9.26C101.89 9.48 102.01 9.91 102.01 10.56L102.01 25.52C102.01 26.18 102.16 26.8 102.46 27.39C102.76 27.98 103.15 28.5 103.64 28.95C104.13 29.41 104.69 29.76 105.31 30.02C105.93 30.28 106.56 30.41 107.2 30.41C107.75 30.41 108.32 30.28 108.91 30.02C109.06 29.96 109.21 29.88 109.35 29.81C109.49 29.73 109.63 29.65 109.77 29.56C109.91 29.47 110.04 29.38 110.17 29.28C110.3 29.19 110.42 29.08 110.55 28.98C111.04 28.54 111.45 28.03 111.78 27.44C112.1 26.85 112.26 26.22 112.26 25.56L112.26 10.63C112.26 10.37 112.31 10.11 112.41 9.84C112.51 9.58 112.66 9.38 112.86 9.25C113.05 9.12 113.24 9.04 113.42 8.99C113.59 8.95 113.8 8.92 114.03 8.92L119.22 8.92C119.88 8.92 120.35 9.09 120.65 9.41C120.94 9.73 121.08 10.16 121.08 10.69L121.08 36.41C121.08 36.7 121.02 36.97 120.89 37.22C120.76 37.46 120.58 37.65 120.35 37.79L120.48 37.72C120.29 37.89 120.08 38 119.85 38.04ZM145.8 35.88C145.3 36.36 144.75 36.8 144.16 37.22C144.01 37.32 143.85 37.42 143.7 37.51C143.54 37.61 143.38 37.7 143.22 37.78C143.06 37.87 142.9 37.95 142.73 38.03C142.56 38.1 142.4 38.17 142.23 38.24C142.05 38.31 141.87 38.37 141.69 38.42C141.5 38.47 141.32 38.51 141.13 38.54C140.94 38.58 140.75 38.6 140.57 38.62C140.38 38.63 140.19 38.64 140 38.64C137.91 38.64 135.99 38.25 134.24 37.47C133.81 37.28 133.4 37.07 132.99 36.84C132.59 36.61 132.19 36.36 131.81 36.1C131.43 35.83 131.07 35.54 130.72 35.23C130.36 34.93 130.03 34.6 129.71 34.26C128.45 32.91 127.46 31.31 126.75 29.47C126.04 27.63 125.68 25.66 125.68 23.54C125.68 21.41 126.04 19.43 126.75 17.6C127.46 15.77 128.45 14.18 129.71 12.82C130.03 12.48 130.36 12.16 130.71 11.85C131.07 11.55 131.43 11.26 131.81 10.99C132.19 10.72 132.58 10.48 132.99 10.25C133.4 10.02 133.81 9.81 134.24 9.63C135.99 8.85 137.91 8.47 140 8.47C140.84 8.47 141.61 8.59 142.31 8.83C142.47 8.89 142.64 8.96 142.8 9.02C142.97 9.09 143.13 9.17 143.29 9.25C143.45 9.32 143.61 9.41 143.76 9.5C143.91 9.58 144.06 9.68 144.21 9.78C144.79 10.16 145.32 10.59 145.8 11.07C146.28 11.56 146.74 12.03 147.17 12.49L147.17 1.99C147.17 1.5 147.32 1.08 147.61 0.75C147.91 0.41 148.36 0.24 148.96 0.24L154.13 0.24C154.33 0.24 154.54 0.28 154.76 0.37C154.98 0.45 155.19 0.57 155.37 0.72C155.55 0.88 155.7 1.06 155.82 1.27C155.93 1.49 155.99 1.73 155.99 1.99L155.99 36.34C155.99 37.52 155.37 38.11 154.13 38.11L149.63 38.11C149.32 38.11 149.08 38.07 148.91 38C148.87 37.98 148.83 37.96 148.79 37.93C148.75 37.91 148.72 37.88 148.68 37.86C148.64 37.83 148.61 37.8 148.58 37.77C148.55 37.73 148.52 37.7 148.49 37.66C148.46 37.62 148.42 37.58 148.4 37.53C148.37 37.49 148.34 37.44 148.31 37.4C148.29 37.35 148.26 37.31 148.24 37.26C148.22 37.21 148.2 37.16 148.18 37.11C148.15 37.05 148.12 36.98 148.09 36.92C148.07 36.85 148.04 36.79 148.01 36.72C147.98 36.66 147.95 36.6 147.92 36.53C147.89 36.47 147.86 36.41 147.83 36.34L147.17 34.55C146.75 34.96 146.3 35.41 145.8 35.88ZM133.95 23.54C133.95 23.78 133.96 24.02 133.98 24.26C134 24.5 134.03 24.74 134.06 24.98C134.1 25.22 134.15 25.45 134.21 25.69C134.27 25.92 134.34 26.15 134.42 26.38C134.74 27.26 135.19 28.02 135.77 28.67C135.91 28.83 136.07 28.98 136.23 29.13C136.39 29.27 136.56 29.41 136.74 29.54C136.92 29.67 137.1 29.79 137.29 29.9C137.48 30 137.67 30.1 137.87 30.19C138.69 30.57 139.6 30.76 140.59 30.76C141.57 30.76 142.5 30.58 143.36 30.23C143.57 30.15 143.78 30.05 143.98 29.95C144.18 29.84 144.37 29.73 144.56 29.61C144.75 29.49 144.94 29.35 145.12 29.21C145.29 29.07 145.46 28.93 145.63 28.77C145.79 28.61 145.94 28.45 146.09 28.28C146.24 28.11 146.37 27.93 146.5 27.74C146.63 27.56 146.76 27.37 146.87 27.18C146.98 26.98 147.08 26.78 147.18 26.58C147.57 25.73 147.79 24.83 147.83 23.86L147.83 23.54C147.83 23.3 147.82 23.06 147.8 22.82C147.78 22.58 147.74 22.35 147.7 22.11C147.65 21.88 147.59 21.64 147.52 21.41C147.45 21.19 147.37 20.96 147.28 20.74C147.19 20.52 147.09 20.31 146.98 20.1C146.88 19.89 146.76 19.69 146.63 19.49C146.5 19.3 146.36 19.11 146.22 18.92C146.07 18.74 145.92 18.56 145.75 18.39C145.59 18.23 145.42 18.06 145.24 17.91C145.06 17.76 144.87 17.62 144.68 17.48C144.49 17.35 144.29 17.22 144.09 17.11C143.88 17 143.67 16.89 143.46 16.8C143.23 16.7 143 16.61 142.77 16.54C142.53 16.46 142.3 16.4 142.06 16.35C141.82 16.3 141.57 16.27 141.33 16.24C141.08 16.22 140.84 16.21 140.59 16.21C139.6 16.21 138.69 16.41 137.87 16.8C137.05 17.19 136.35 17.72 135.77 18.39C135.62 18.57 135.48 18.74 135.35 18.93C135.22 19.12 135.1 19.31 134.99 19.5C134.87 19.7 134.77 19.9 134.68 20.11C134.58 20.31 134.5 20.52 134.42 20.74C134.34 20.96 134.28 21.19 134.22 21.42C134.16 21.65 134.11 21.88 134.07 22.12C134.03 22.35 134 22.59 133.98 22.83C133.96 23.06 133.95 23.3 133.95 23.54L133.95 23.54ZM182.67 34.55L182.67 34.55C182.67 34.55 182.67 34.55 182.67 34.55L182.67 34.55ZM181.3 35.88C180.81 36.36 180.26 36.8 179.66 37.22C179.51 37.32 179.36 37.42 179.2 37.51C179.05 37.61 178.89 37.7 178.73 37.78C178.56 37.87 178.4 37.95 178.24 38.03C178.07 38.1 177.9 38.17 177.73 38.24C177.55 38.31 177.37 38.37 177.19 38.42C177.01 38.47 176.82 38.51 176.63 38.54C176.45 38.58 176.26 38.6 176.07 38.62C175.88 38.63 175.69 38.64 175.5 38.64C173.42 38.64 171.5 38.25 169.75 37.47C169.32 37.28 168.9 37.07 168.5 36.84C168.09 36.61 167.7 36.36 167.32 36.1C166.94 35.83 166.57 35.54 166.22 35.23C165.87 34.93 165.54 34.6 165.22 34.26C163.95 32.91 162.97 31.31 162.25 29.47C161.54 27.63 161.18 25.66 161.18 23.54C161.18 21.41 161.54 19.43 162.25 17.6C162.97 15.77 163.95 14.18 165.22 12.82C165.53 12.48 165.87 12.16 166.22 11.85C166.57 11.55 166.94 11.26 167.32 10.99C167.7 10.72 168.09 10.47 168.5 10.25C168.9 10.02 169.32 9.81 169.75 9.63C171.5 8.85 173.42 8.47 175.5 8.47C176.34 8.47 177.11 8.59 177.81 8.83C177.98 8.89 178.15 8.96 178.31 9.02C178.47 9.09 178.63 9.17 178.79 9.25C178.95 9.32 179.11 9.41 179.26 9.5C179.42 9.58 179.57 9.68 179.72 9.78C180.29 10.16 180.82 10.59 181.3 11.07C181.79 11.56 182.24 12.03 182.67 12.49L182.67 1.99C182.67 1.5 182.82 1.08 183.12 0.75C183.42 0.41 183.87 0.24 184.46 0.24L189.63 0.24C189.83 0.24 190.04 0.28 190.27 0.37C190.49 0.45 190.69 0.57 190.88 0.72C191.06 0.88 191.21 1.06 191.32 1.27C191.44 1.49 191.5 1.73 191.5 1.99L191.5 36.34C191.5 37.52 190.88 38.11 189.63 38.11L185.13 38.11C184.82 38.11 184.59 38.07 184.42 38C184.38 37.98 184.34 37.96 184.3 37.93C184.26 37.91 184.22 37.88 184.19 37.86C184.15 37.83 184.12 37.8 184.08 37.76C184.05 37.73 184.02 37.7 183.99 37.66C183.96 37.62 183.93 37.58 183.9 37.53C183.87 37.49 183.85 37.44 183.82 37.4C183.79 37.35 183.77 37.31 183.75 37.26C183.72 37.21 183.7 37.16 183.68 37.11C183.66 37.05 183.63 36.98 183.6 36.92C183.57 36.85 183.54 36.79 183.52 36.72C183.49 36.66 183.46 36.6 183.43 36.53C183.4 36.47 183.37 36.41 183.34 36.34L182.67 34.55C182.26 34.96 181.8 35.41 181.3 35.88ZM169.46 23.54C169.46 23.78 169.46 24.02 169.48 24.26C169.5 24.5 169.53 24.74 169.57 24.98C169.61 25.22 169.66 25.45 169.72 25.69C169.78 25.92 169.85 26.15 169.93 26.38C170.24 27.26 170.69 28.02 171.27 28.67C171.42 28.83 171.57 28.98 171.74 29.13C171.9 29.27 172.07 29.41 172.25 29.54C172.42 29.67 172.61 29.79 172.79 29.9C172.98 30 173.18 30.1 173.38 30.19C174.2 30.57 175.1 30.76 176.1 30.76C177.08 30.76 178 30.58 178.87 30.23C179.08 30.15 179.28 30.05 179.48 29.95C179.68 29.84 179.88 29.73 180.07 29.61C180.26 29.49 180.44 29.35 180.62 29.21C180.8 29.07 180.97 28.93 181.13 28.77C181.29 28.61 181.45 28.45 181.59 28.28C181.74 28.11 181.88 27.93 182.01 27.74C182.14 27.56 182.26 27.37 182.37 27.18C182.49 26.98 182.59 26.78 182.68 26.58C183.07 25.73 183.29 24.83 183.34 23.86L183.34 23.54C183.34 23.3 183.33 23.06 183.31 22.82C183.28 22.58 183.25 22.35 183.2 22.11C183.15 21.88 183.1 21.64 183.03 21.41C182.96 21.19 182.88 20.96 182.79 20.74C182.7 20.52 182.6 20.31 182.49 20.1C182.38 19.89 182.26 19.69 182.13 19.49C182.01 19.3 181.87 19.11 181.72 18.92C181.58 18.74 181.42 18.56 181.26 18.39C181.09 18.23 180.92 18.06 180.74 17.91C180.57 17.76 180.38 17.62 180.19 17.48C179.99 17.35 179.79 17.22 179.59 17.11C179.39 17 179.17 16.89 178.96 16.8C178.74 16.7 178.51 16.61 178.27 16.54C178.04 16.46 177.8 16.4 177.56 16.35C177.32 16.3 177.08 16.27 176.83 16.24C176.59 16.22 176.34 16.21 176.1 16.21C175.1 16.21 174.2 16.41 173.38 16.8C172.56 17.19 171.86 17.72 171.27 18.39C171.13 18.57 170.99 18.74 170.86 18.93C170.72 19.12 170.6 19.31 170.49 19.5C170.38 19.7 170.27 19.9 170.18 20.11C170.09 20.31 170 20.52 169.93 20.74C169.85 20.96 169.78 21.19 169.72 21.42C169.66 21.65 169.61 21.88 169.57 22.12C169.53 22.35 169.5 22.59 169.49 22.83C169.47 23.06 169.46 23.3 169.46 23.54L169.46 23.54ZM197.61 2.01C197.61 1.52 197.73 1.1 197.98 0.77C198.22 0.43 198.64 0.26 199.24 0.26L204.87 0.26C205.03 0.26 205.19 0.3 205.35 0.39C205.4 0.41 205.44 0.44 205.48 0.46C205.52 0.49 205.57 0.52 205.61 0.55C205.64 0.58 205.68 0.61 205.72 0.64C205.76 0.67 205.79 0.71 205.83 0.74C205.97 0.9 206.09 1.08 206.19 1.3C206.29 1.51 206.34 1.75 206.34 2.01L206.34 36.34C206.34 36.92 206.18 37.36 205.85 37.66C205.52 37.96 205.09 38.11 204.57 38.11L199.24 38.11C198.64 38.11 198.22 37.96 197.98 37.66C197.73 37.36 197.61 36.92 197.61 36.34L197.61 2.01ZM236.31 34.62C235.98 34.92 235.63 35.22 235.27 35.49C234.92 35.77 234.55 36.03 234.16 36.27C233.78 36.52 233.39 36.74 232.99 36.95C232.59 37.16 232.18 37.35 231.76 37.53C231.34 37.7 230.91 37.85 230.47 37.98C230.03 38.12 229.58 38.23 229.13 38.31C228.69 38.4 228.23 38.47 227.78 38.51C227.32 38.55 226.86 38.57 226.41 38.57C224.31 38.57 222.32 38.19 220.45 37.42C220 37.24 219.55 37.03 219.12 36.8C218.68 36.58 218.25 36.33 217.84 36.06C217.43 35.8 217.03 35.51 216.65 35.21C216.26 34.9 215.89 34.58 215.53 34.24C215.18 33.9 214.85 33.54 214.53 33.17C214.21 32.8 213.91 32.41 213.63 32.01C213.34 31.6 213.08 31.19 212.84 30.76C212.6 30.33 212.38 29.9 212.18 29.45C211.35 27.61 210.94 25.61 210.94 23.45C210.94 22.1 211.1 20.8 211.43 19.53C211.51 19.22 211.6 18.92 211.7 18.61C211.8 18.31 211.91 18.01 212.02 17.71C212.14 17.42 212.27 17.12 212.4 16.83C212.54 16.55 212.68 16.26 212.83 15.98C212.99 15.71 213.15 15.43 213.31 15.17C213.48 14.9 213.66 14.64 213.84 14.39C214.03 14.13 214.22 13.89 214.42 13.64C214.62 13.4 214.83 13.17 215.04 12.94C215.26 12.71 215.48 12.48 215.71 12.27C215.93 12.05 216.17 11.85 216.41 11.65C216.66 11.45 216.91 11.26 217.16 11.08C217.42 10.89 217.68 10.72 217.95 10.56C218.22 10.39 218.5 10.23 218.78 10.09C219.06 9.94 219.35 9.8 219.64 9.67C219.93 9.54 220.23 9.42 220.53 9.31C220.83 9.2 221.13 9.11 221.44 9.02C221.76 8.92 222.09 8.84 222.42 8.77C222.75 8.7 223.08 8.65 223.41 8.6C223.74 8.55 224.08 8.52 224.41 8.5C224.74 8.47 225.08 8.46 225.42 8.47C226.69 8.47 227.92 8.64 229.12 8.97C230.31 9.31 231.43 9.78 232.48 10.4C233.53 11.01 234.49 11.75 235.37 12.6C235.58 12.81 235.79 13.03 235.99 13.25C236.2 13.48 236.39 13.71 236.58 13.94C236.77 14.18 236.95 14.42 237.12 14.66C237.29 14.91 237.46 15.16 237.62 15.42C237.78 15.67 237.92 15.93 238.06 16.2C238.2 16.46 238.33 16.73 238.46 17C238.58 17.27 238.69 17.55 238.8 17.83C238.9 18.11 238.99 18.39 239.08 18.68C239.42 19.84 239.6 21.03 239.6 22.25C239.6 23.05 239.58 23.7 239.56 24.21C239.54 24.71 239.42 25.12 239.2 25.41C238.99 25.71 238.63 25.92 238.14 26.03C237.64 26.15 236.91 26.21 235.94 26.21L219.4 26.21C219.55 27.19 219.86 28.01 220.33 28.67C220.43 28.82 220.55 28.97 220.67 29.12C220.79 29.26 220.92 29.4 221.06 29.53C221.2 29.66 221.34 29.79 221.49 29.91C221.63 30.03 221.79 30.14 221.95 30.24C222.56 30.63 223.21 30.91 223.9 31.08C224.06 31.12 224.22 31.16 224.38 31.19C224.54 31.22 224.71 31.24 224.87 31.26C225.03 31.29 225.2 31.3 225.36 31.31C225.52 31.32 225.69 31.33 225.85 31.33C226.41 31.33 226.97 31.27 227.55 31.16C227.7 31.13 227.84 31.1 227.98 31.07C228.12 31.03 228.27 31 228.41 30.96C228.55 30.92 228.69 30.88 228.83 30.84C228.97 30.79 229.11 30.75 229.24 30.7C229.37 30.66 229.5 30.61 229.63 30.56C229.75 30.51 229.88 30.45 230 30.4C230.13 30.34 230.25 30.28 230.37 30.22C230.5 30.16 230.62 30.1 230.74 30.03C231.19 29.78 231.55 29.52 231.83 29.24C232.07 29.04 232.28 28.89 232.46 28.79C232.64 28.69 232.82 28.64 233.02 28.64C233.22 28.64 233.42 28.71 233.63 28.85C233.7 28.89 233.76 28.94 233.82 28.99C233.88 29.03 233.94 29.08 234 29.13C234.06 29.18 234.11 29.23 234.17 29.29C234.22 29.34 234.28 29.39 234.33 29.45L236.77 32.2C236.94 32.41 237.05 32.59 237.09 32.74C237.14 32.91 237.16 33.07 237.16 33.24C237.16 33.55 237.07 33.81 236.91 34.03C236.86 34.09 236.82 34.14 236.77 34.19C236.73 34.25 236.68 34.3 236.63 34.35C236.58 34.4 236.53 34.44 236.47 34.49C236.42 34.53 236.37 34.58 236.31 34.62L236.31 34.62ZM225.26 15.48C224.66 15.48 224.08 15.59 223.52 15.83C223.38 15.89 223.24 15.96 223.1 16.03C222.97 16.1 222.83 16.17 222.7 16.25C222.57 16.33 222.44 16.42 222.31 16.51C222.19 16.59 222.07 16.69 221.95 16.79C221.46 17.18 221.02 17.64 220.63 18.14C220.53 18.26 220.44 18.38 220.36 18.51C220.27 18.63 220.19 18.76 220.11 18.88C220.03 19.01 219.95 19.14 219.88 19.28C219.81 19.41 219.74 19.54 219.67 19.68L231.41 19.68C231.34 19.54 231.26 19.39 231.18 19.25C231.09 19.11 231.01 18.97 230.92 18.83C230.83 18.7 230.74 18.56 230.65 18.43C230.56 18.29 230.47 18.16 230.37 18.03C230.28 17.9 230.18 17.78 230.08 17.66C229.98 17.54 229.88 17.43 229.77 17.32C229.66 17.21 229.55 17.1 229.44 16.99C229.32 16.89 229.2 16.79 229.08 16.69C228.96 16.6 228.83 16.5 228.7 16.42C228.57 16.33 228.43 16.25 228.29 16.17C228.15 16.1 228.01 16.03 227.87 15.97C227.72 15.9 227.58 15.85 227.43 15.8C226.81 15.58 226.08 15.48 225.26 15.48Z" />
	</g>
</svg>